<svg width="24" height="24" viewBox="0 0 24 24" fill="none" xmlns="http://www.w3.org/2000/svg">
<path d="M6.22289 10.1199C6.22183 9.31348 6.37187 8.51475 6.66439 7.76983C6.9569 7.0249 7.38609 6.34849 7.92722 5.77961C8.46836 5.21072 9.11073 4.76059 9.81731 4.45518C10.5239 4.14977 11.2807 3.99511 12.0441 4.00012C15.2297 4.02514 17.7778 6.82223 17.7778 10.1968V10.7999C17.7778 13.8443 18.3807 15.6109 18.9117 16.5764C18.9689 16.6796 18.9994 16.7968 19 16.9164C19.0006 17.036 18.9713 17.1536 18.9152 17.2574C18.859 17.3612 18.7779 17.4475 18.6801 17.5077C18.5823 17.5678 18.4712 17.5996 18.358 17.5999H5.64199C5.52879 17.5996 5.41767 17.5678 5.31984 17.5076C5.22201 17.4475 5.14093 17.3611 5.08478 17.2573C5.02862 17.1535 4.99938 17.0358 5.00001 16.9163C5.00064 16.7967 5.0311 16.6794 5.08834 16.5762C5.61967 15.6107 6.22289 13.8441 6.22289 10.7999L6.22289 10.1199Z" stroke="#4B5563" stroke-width="1.8" stroke-linecap="round" stroke-linejoin="round"/>
<path d="M9.42529 17.5996V18.2796C9.42529 19.001 9.69657 19.6928 10.1795 20.2029C10.6623 20.713 11.3173 20.9996 12.0002 20.9996C12.6831 20.9996 13.338 20.713 13.8209 20.2029C14.3037 19.6928 14.575 19.001 14.575 18.2796V17.5996" stroke="#4B5563" stroke-width="1.8" stroke-linecap="round" stroke-linejoin="round"/>
</svg>
