<svg width="57" height="30" viewBox="0 0 57 30" fill="none" xmlns="http://www.w3.org/2000/svg">
<path d="M21.7935 10.8246C21.7935 16.5809 17.1233 21.2473 11.3621 21.2473C5.60089 21.2473 0.930664 16.5809 0.930664 10.8246C0.930664 5.06819 5.60089 0.401855 11.3621 0.401855C14.0098 0.401855 16.4278 1.38767 18.2671 3.0126L15.8338 5.22308C14.6081 4.24378 13.0536 3.65895 11.3621 3.65895C7.40104 3.65895 4.19048 6.86683 4.19048 10.8246C4.19048 14.7823 7.40104 17.9902 11.3621 17.9902C15.3231 17.9902 18.5337 14.7823 18.5337 10.8246C18.5337 10.5206 18.5148 10.2216 18.4779 9.92778L21.2277 7.42995C21.5943 8.49393 21.7935 9.63609 21.7935 10.8246Z" fill="#111111"/>
<path d="M28.965 0.999023V17.7007L25.0532 21.2473V4.58183L28.965 0.999023Z" fill="url(#paint0_linear_1720_604)"/>
<path d="M28.9652 0.401855L25.0534 3.95499L21.2278 7.42995L18.478 9.92778L14.622 13.4302H9.40625L17.0617 6.4767L19.4805 4.27997L23.7494 0.401855H28.9652Z" fill="url(#paint1_linear_1720_604)"/>
<path d="M40.7003 6.98828V11.7654L30.2689 21.2471H25.0532L40.7003 6.98828Z" fill="url(#paint2_linear_1720_604)"/>
<path d="M44.4673 3.65895V8.87031H56.9995V12.1274H44.4673V17.9902H56.9995V21.2473H41.2075V0.401855H56.9995V3.65895H44.4673Z" fill="#111111"/>
<path d="M4.06661 28.2672C4.013 28.3106 3.94201 28.3548 3.85363 28.4004C3.76526 28.4452 3.66311 28.4858 3.54721 28.5205C3.43203 28.5553 3.31395 28.5849 3.1937 28.6081C3.07345 28.6313 2.96117 28.6436 2.85758 28.6436C2.55985 28.6436 2.29327 28.5987 2.05711 28.5082C1.82096 28.4177 1.61957 28.2932 1.45223 28.1347C1.2849 27.9762 1.15595 27.7887 1.06613 27.5731C0.976301 27.3574 0.930664 27.1192 0.930664 26.8587C0.930664 26.5445 0.981372 26.2659 1.08351 26.0241C1.18565 25.7817 1.32257 25.5775 1.49497 25.4125C1.66738 25.2468 1.86659 25.1223 2.09188 25.039C2.3179 24.9558 2.55623 24.9138 2.80687 24.9138C3.02781 24.9138 3.23282 24.9392 3.42189 24.9891C3.61096 25.039 3.77395 25.1027 3.91086 25.1795L3.71527 25.7209C3.65152 25.681 3.57039 25.6449 3.47187 25.613C3.37335 25.5812 3.27194 25.5544 3.16835 25.5327C3.06476 25.511 2.96914 25.5001 2.88221 25.5001C2.67503 25.5001 2.48741 25.529 2.32007 25.5877C2.15273 25.6463 2.01075 25.7324 1.8934 25.8461C1.77604 25.9597 1.68694 26.098 1.62464 26.2601C1.56234 26.4222 1.53192 26.6053 1.53192 26.8087C1.53192 26.9991 1.56524 27.1713 1.63261 27.3255C1.69926 27.479 1.79053 27.6114 1.90644 27.7214C2.02162 27.8315 2.16143 27.9161 2.32514 27.9748C2.48886 28.0334 2.66996 28.0623 2.86699 28.0623C2.98073 28.0623 3.09084 28.0522 3.19805 28.0327C3.30526 28.0124 3.39726 27.9806 3.47405 27.9371V27.3306H2.78659V26.7638H4.06588V28.2679L4.06661 28.2672Z" fill="#111111"/>
<path d="M5.8175 28.5888C5.57845 28.5888 5.37199 28.5417 5.19669 28.4469C5.02138 28.3521 4.88809 28.2211 4.79682 28.0546C4.70554 27.8882 4.65918 27.6971 4.65918 27.4814C4.65918 27.2657 4.71134 27.084 4.81638 26.9175C4.92069 26.7511 5.06267 26.6179 5.24088 26.518C5.41908 26.4181 5.61612 26.3689 5.83199 26.3689C6.11668 26.3689 6.35139 26.4514 6.53611 26.6164C6.72083 26.7815 6.84471 27.0145 6.90628 27.3149L5.23291 27.8787L5.11048 27.5697L6.41079 27.1043L6.30285 27.173C6.26663 27.0717 6.20795 26.9841 6.1261 26.911C6.04424 26.8372 5.93123 26.801 5.7878 26.801C5.67334 26.801 5.57193 26.8285 5.48355 26.8842C5.39517 26.94 5.32563 27.016 5.27492 27.1122C5.22421 27.2085 5.19886 27.3207 5.19886 27.4481C5.19886 27.5885 5.22639 27.7086 5.28217 27.8085C5.33795 27.9084 5.41328 27.9851 5.50818 28.0387C5.60308 28.093 5.71101 28.1198 5.83199 28.1198C5.91674 28.1198 5.9986 28.1053 6.07756 28.0756C6.1558 28.0459 6.22969 28.0069 6.29851 27.9576L6.54842 28.3644C6.44049 28.4332 6.32169 28.4875 6.19274 28.5287C6.0638 28.5692 5.93848 28.5902 5.8175 28.5902V28.5888Z" fill="#111111"/>
<path d="M7.99163 26.5297L8.04089 26.9756L8.0264 26.9169C8.09522 26.7729 8.20026 26.6578 8.34297 26.571C8.48495 26.4841 8.65446 26.4414 8.85078 26.4414C9.04709 26.4414 9.20501 26.4993 9.33395 26.6151C9.4629 26.7309 9.52954 26.8793 9.53244 27.0588V28.6027H8.98262V27.2593C8.979 27.1551 8.95002 27.0704 8.89424 27.0067C8.83846 26.943 8.75008 26.9097 8.62911 26.9061C8.51755 26.9061 8.41758 26.9394 8.32703 27.0067C8.23721 27.074 8.16839 27.1652 8.1213 27.281C8.07349 27.3968 8.05031 27.5322 8.05031 27.6856V28.6019H7.50049V26.5283H7.99091L7.99163 26.5297Z" fill="#111111"/>
<path d="M11.3224 28.5888C11.0833 28.5888 10.8769 28.5417 10.7016 28.4469C10.5263 28.3521 10.393 28.2211 10.3017 28.0546C10.2104 27.8882 10.1641 27.6971 10.1641 27.4814C10.1641 27.2657 10.2162 27.084 10.3213 26.9175C10.4256 26.7511 10.5676 26.6179 10.7458 26.518C10.924 26.4181 11.121 26.3689 11.3369 26.3689C11.6216 26.3689 11.8563 26.4514 12.041 26.6164C12.2257 26.7815 12.3496 27.0145 12.4112 27.3149L10.7378 27.8787L10.6154 27.5697L11.9157 27.1043L11.8077 27.173C11.7715 27.0717 11.7128 26.9841 11.631 26.911C11.5491 26.8372 11.4361 26.801 11.2927 26.801C11.1782 26.801 11.0768 26.8285 10.9884 26.8842C10.9001 26.94 10.8305 27.016 10.7798 27.1122C10.7291 27.2085 10.7037 27.3207 10.7037 27.4481C10.7037 27.5885 10.7313 27.7086 10.7871 27.8085C10.8428 27.9084 10.9182 27.9851 11.0131 28.0387C11.108 28.093 11.2159 28.1198 11.3369 28.1198C11.4216 28.1198 11.5035 28.1053 11.5824 28.0756C11.6607 28.0459 11.7346 28.0069 11.8034 27.9576L12.0533 28.3644C11.9454 28.4332 11.8266 28.4875 11.6976 28.5287C11.5687 28.5692 11.4434 28.5902 11.3224 28.5902V28.5888Z" fill="#111111"/>
<path d="M13.491 26.5294L13.5446 27.1179L13.5301 27.0346C13.5822 26.9101 13.6612 26.8044 13.7655 26.7161C13.8698 26.6278 13.9763 26.5591 14.0842 26.5099C14.1922 26.4606 14.282 26.436 14.3544 26.436L14.3204 26.9854C14.1668 26.9724 14.0314 26.9999 13.9155 27.0686C13.7996 27.1374 13.7097 27.2293 13.6453 27.3458C13.5815 27.4617 13.5496 27.5833 13.5496 27.7114V28.6038H13.0049V26.5301H13.491V26.5294Z" fill="#111111"/>
<path d="M15.7772 28.6567C15.5809 28.6567 15.4035 28.6154 15.2448 28.5343C15.0862 28.4525 14.9608 28.3309 14.8696 28.1688C14.7783 28.0067 14.7319 27.8069 14.7319 27.5681C14.7319 27.3292 14.7805 27.1309 14.8768 26.963C14.9732 26.795 15.1007 26.6648 15.2593 26.5736C15.4179 26.4824 15.5904 26.436 15.7765 26.436C15.9757 26.436 16.1366 26.4751 16.2575 26.5533C16.3785 26.6315 16.4748 26.7248 16.5473 26.8327L16.5176 26.9108L16.5719 26.5287H17.0819V28.6024H16.5277V28.0972L16.5821 28.2296C16.569 28.2492 16.5437 28.281 16.506 28.3251C16.4683 28.3693 16.4147 28.4178 16.3437 28.4699C16.2735 28.522 16.1916 28.5662 16.0982 28.6024C16.0047 28.6386 15.8975 28.6567 15.7765 28.6567H15.7772ZM15.9294 28.2057C16.0272 28.2057 16.1177 28.1884 16.1989 28.1543C16.2807 28.1203 16.3495 28.0696 16.4046 28.0023C16.4604 27.9357 16.5009 27.8561 16.527 27.7642V27.3133C16.5009 27.2286 16.4575 27.154 16.3973 27.0903C16.3365 27.0267 16.2648 26.9767 16.1815 26.9405C16.0982 26.9043 16.0076 26.8862 15.9091 26.8862C15.7946 26.8862 15.6896 26.9137 15.5954 26.9695C15.5005 27.0252 15.4252 27.1019 15.3694 27.1996C15.3136 27.2974 15.2861 27.4103 15.2861 27.5377C15.2861 27.665 15.3158 27.7743 15.3745 27.8757C15.4332 27.977 15.5114 28.0573 15.6077 28.116C15.7041 28.1746 15.8113 28.2043 15.9294 28.2043V28.2057Z" fill="#111111"/>
<path d="M18.0878 25.6177H18.6377V26.5297H19.1773V26.956H18.6377V28.6033H18.0878V26.956H17.73V26.5297H18.0878V25.6177Z" fill="#111111"/>
<path d="M20.7526 28.5888C20.5135 28.5888 20.3071 28.5417 20.1317 28.4469C19.9564 28.3521 19.8232 28.2211 19.7319 28.0546C19.6406 27.8882 19.5942 27.6971 19.5942 27.4814C19.5942 27.2657 19.6464 27.084 19.7514 26.9175C19.8557 26.7511 19.9977 26.6179 20.1759 26.518C20.3541 26.4181 20.5512 26.3689 20.767 26.3689C21.0517 26.3689 21.2864 26.4514 21.4712 26.6164C21.6559 26.7815 21.7798 27.0145 21.8413 27.3149L20.168 27.8787L20.0455 27.5697L21.3458 27.1043L21.2379 27.173C21.2017 27.0717 21.143 26.9841 21.0612 26.911C20.9793 26.8372 20.8663 26.801 20.7229 26.801C20.6084 26.801 20.507 26.8285 20.4186 26.8842C20.3302 26.94 20.2607 27.016 20.21 27.1122C20.1593 27.2085 20.1339 27.3207 20.1339 27.4481C20.1339 27.5885 20.1614 27.7086 20.2172 27.8085C20.273 27.9084 20.3483 27.9851 20.4432 28.0387C20.5381 28.093 20.6461 28.1198 20.767 28.1198C20.8518 28.1198 20.9337 28.1053 21.0126 28.0756C21.0909 28.0459 21.1647 28.0069 21.2336 27.9576L21.4835 28.3644C21.3755 28.4332 21.2567 28.4875 21.1278 28.5287C20.9989 28.5692 20.8735 28.5902 20.7526 28.5902V28.5888Z" fill="#111111"/>
<path d="M27.3017 28.5888L24.5591 26.0736L24.7308 26.1423L24.7409 28.6032H24.1621V24.9119H24.1918L26.8851 27.4271L26.7576 27.388L26.7475 24.9126H27.3169V28.5895H27.3024L27.3017 28.5888Z" fill="#111111"/>
<path d="M29.2252 28.5888C28.9862 28.5888 28.7797 28.5417 28.6044 28.4469C28.4291 28.3521 28.2958 28.2211 28.2045 28.0546C28.1133 27.8882 28.0669 27.6971 28.0669 27.4814C28.0669 27.2657 28.1191 27.084 28.2241 26.9175C28.3284 26.7511 28.4704 26.6179 28.6486 26.518C28.8268 26.4181 29.0238 26.3689 29.2397 26.3689C29.5244 26.3689 29.7591 26.4514 29.9438 26.6164C30.1285 26.7815 30.2524 27.0145 30.314 27.3149L28.6413 27.8787L28.5189 27.5697L29.8192 27.1043L29.7113 27.173C29.6751 27.0717 29.6164 26.9841 29.5345 26.911C29.4527 26.8372 29.3397 26.801 29.1962 26.801C29.0818 26.801 28.9804 26.8285 28.892 26.8842C28.8036 26.94 28.7341 27.016 28.6834 27.1122C28.6327 27.2085 28.6073 27.3207 28.6073 27.4481C28.6073 27.5885 28.6348 27.7086 28.6906 27.8085C28.7464 27.9084 28.8217 27.9851 28.9166 28.0387C29.0115 28.093 29.1195 28.1198 29.2404 28.1198C29.3252 28.1198 29.407 28.1053 29.486 28.0756C29.5642 28.0459 29.6381 28.0069 29.7069 27.9576L29.9569 28.3644C29.8489 28.4332 29.7301 28.4875 29.6012 28.5287C29.4722 28.5692 29.3469 28.5902 29.2259 28.5902L29.2252 28.5888Z" fill="#111111"/>
<path d="M32.8717 28.6034H32.1574L30.4551 26.3828H31.1802L32.8724 28.6034H32.8717ZM31.6214 27.821L31.0752 28.6034H30.487L31.3483 27.4273L31.6214 27.821ZM31.6895 27.1594L32.1784 26.3828H32.7667L31.8995 27.585L31.6895 27.1594Z" fill="#111111"/>
<path d="M33.4932 25.6177H34.043V26.5297H34.5827V26.956H34.043V28.6033H33.4932V26.956H33.0767V26.5297H33.4932V25.6177Z" fill="#111111"/>
<path d="M36.7568 24.9119H39.293V25.48H37.3711V26.4637H39.293V27.0319H37.3711V28.0358H39.3661V28.604H36.7568V24.9126V24.9119Z" fill="#111111"/>
<path d="M41.7901 28.4163C41.6952 28.488 41.5814 28.5459 41.4489 28.59C41.3163 28.6342 41.183 28.6559 41.049 28.6559C40.8201 28.6559 40.618 28.611 40.4434 28.5213C40.2681 28.4315 40.1334 28.3056 40.0385 28.1434C39.9436 27.982 39.8965 27.7881 39.8965 27.5622C39.8965 27.3364 39.9479 27.1431 40.0508 26.981C40.1536 26.8196 40.2891 26.6944 40.4579 26.6061C40.626 26.5178 40.8042 26.4736 40.9903 26.4736C41.1671 26.4736 41.3221 26.4975 41.4561 26.5446C41.5901 26.5916 41.7046 26.6568 41.7995 26.7385L41.5344 27.0961C41.4786 27.0534 41.409 27.0136 41.3257 26.9759C41.2424 26.9383 41.1468 26.9195 41.0389 26.9195C40.9309 26.9195 40.8317 26.9484 40.7419 27.0056C40.652 27.0628 40.5796 27.1388 40.526 27.2336C40.4717 27.3284 40.4449 27.4377 40.4449 27.5622C40.4449 27.6795 40.4724 27.7881 40.5282 27.8858C40.5839 27.9835 40.66 28.0616 40.7564 28.1188C40.8527 28.176 40.965 28.205 41.0925 28.205C41.1772 28.205 41.254 28.1927 41.3228 28.168C41.3917 28.1434 41.4532 28.1101 41.509 28.0674L41.7886 28.4156L41.7901 28.4163Z" fill="#111111"/>
<path d="M42.2266 27.5442C42.2266 27.335 42.2765 27.1468 42.3765 26.9803C42.4765 26.8139 42.6148 26.6814 42.7909 26.583C42.9669 26.4845 43.1705 26.436 43.3994 26.436C43.6283 26.436 43.8289 26.4853 44.0006 26.583C44.1723 26.6807 44.3056 26.8131 44.4005 26.9803C44.4954 27.1475 44.5425 27.3335 44.5425 27.5391C44.5425 27.7447 44.4954 27.9415 44.4005 28.1102C44.3056 28.2788 44.1723 28.412 44.0006 28.5097C43.8289 28.6074 43.6239 28.6567 43.3849 28.6567C43.1625 28.6567 42.964 28.6118 42.7887 28.522C42.6134 28.4323 42.4765 28.3042 42.3765 28.137C42.2765 27.9705 42.2266 27.7729 42.2266 27.5442ZM42.7807 27.5492C42.7807 27.6737 42.8068 27.7845 42.859 27.8829C42.9111 27.9806 42.9821 28.0595 43.0727 28.1181C43.1625 28.1768 43.2646 28.2064 43.3791 28.2064C43.5001 28.2064 43.6058 28.1768 43.6957 28.1181C43.7855 28.0595 43.8565 27.9806 43.9094 27.8829C43.9615 27.7852 43.9876 27.6737 43.9876 27.5492C43.9876 27.4247 43.9615 27.314 43.9094 27.2156C43.8572 27.1179 43.7862 27.039 43.6957 26.9803C43.6058 26.9217 43.5015 26.892 43.3842 26.892C43.2668 26.892 43.1668 26.9217 43.0748 26.9803C42.9828 27.039 42.9111 27.1186 42.859 27.2185C42.8068 27.3183 42.7807 27.4284 42.7807 27.5492Z" fill="#111111"/>
<path d="M45.6657 26.5297L45.715 26.9756L45.7005 26.9169C45.7693 26.7729 45.8751 26.6578 46.017 26.571C46.159 26.4841 46.3285 26.4414 46.5248 26.4414C46.7212 26.4414 46.8791 26.4993 47.008 26.6151C47.137 26.7309 47.2036 26.8793 47.2065 27.0588V28.6027H46.6567V27.2593C46.6531 27.1551 46.6241 27.0704 46.5683 27.0067C46.5125 26.943 46.4242 26.9097 46.3032 26.9061C46.1916 26.9061 46.0917 26.9394 46.0011 27.0067C45.9113 27.074 45.8425 27.1652 45.7946 27.281C45.7468 27.3968 45.7237 27.5322 45.7237 27.6856V28.6019H45.1738V26.5283H45.6643L45.6657 26.5297Z" fill="#111111"/>
<path d="M47.8394 27.5442C47.8394 27.335 47.8893 27.1468 47.9893 26.9803C48.0893 26.8139 48.2276 26.6814 48.4037 26.583C48.5797 26.4845 48.7833 26.436 49.0122 26.436C49.2411 26.436 49.4417 26.4853 49.6134 26.583C49.7851 26.6807 49.9184 26.8131 50.0133 26.9803C50.1082 27.1468 50.1553 27.3335 50.1553 27.5391C50.1553 27.7447 50.1082 27.9415 50.0133 28.1102C49.9184 28.2788 49.7851 28.412 49.6134 28.5097C49.4417 28.6074 49.2367 28.6567 48.9977 28.6567C48.7753 28.6567 48.5768 28.6118 48.4015 28.522C48.2262 28.4323 48.0893 28.3042 47.9893 28.137C47.8893 27.9705 47.8394 27.7729 47.8394 27.5442ZM48.3935 27.5492C48.3935 27.6737 48.4196 27.7845 48.4718 27.8829C48.5239 27.9806 48.5949 28.0595 48.6855 28.1181C48.7753 28.1768 48.8774 28.2064 48.9919 28.2064C49.1129 28.2064 49.2186 28.1768 49.3084 28.1181C49.3983 28.0595 49.4693 27.9806 49.5221 27.8829C49.5743 27.7852 49.6004 27.6737 49.6004 27.5492C49.6004 27.4247 49.5743 27.314 49.5221 27.2156C49.47 27.1179 49.399 27.039 49.3084 26.9803C49.2186 26.9217 49.1143 26.892 48.997 26.892C48.8796 26.892 48.7796 26.9217 48.6876 26.9803C48.5956 27.039 48.5239 27.1186 48.4718 27.2185C48.4196 27.3183 48.3935 27.4284 48.3935 27.5492Z" fill="#111111"/>
<path d="M51.278 26.5294L51.3273 26.9507L51.3077 26.9166C51.3896 26.7661 51.4975 26.6488 51.6315 26.5634C51.7655 26.4787 51.9213 26.436 52.0973 26.436C52.2147 26.436 52.3182 26.4534 52.4066 26.4874C52.495 26.5214 52.5696 26.5721 52.6297 26.6394C52.6899 26.7067 52.7283 26.7892 52.7449 26.887L52.7254 26.9014C52.8072 26.7545 52.9152 26.6401 53.0492 26.5584C53.1832 26.4766 53.3273 26.436 53.4809 26.436C53.6801 26.436 53.8409 26.4932 53.9619 26.6076C54.0829 26.7219 54.1452 26.8725 54.1481 27.0585V28.6024H53.6033V27.2742C53.5997 27.1729 53.5787 27.0889 53.5396 27.0216C53.5005 26.955 53.4266 26.9181 53.3186 26.9116C53.2013 26.9116 53.0999 26.9485 53.0144 27.0216C52.9289 27.0954 52.863 27.1902 52.8159 27.306C52.7688 27.4218 52.7427 27.5442 52.7398 27.6716V28.6031H52.19V27.2749C52.1864 27.1736 52.1639 27.0896 52.1212 27.0223C52.0785 26.9557 52.0031 26.9188 51.8952 26.9123C51.7807 26.9123 51.6808 26.9492 51.596 27.0223C51.5105 27.0961 51.4461 27.191 51.4019 27.3068C51.3577 27.4226 51.336 27.5463 51.336 27.6766V28.6031H50.7861V26.5294H51.2766H51.278Z" fill="#111111"/>
<path d="M55.6551 28.6177L54.6445 26.5295H55.2624L56.0767 28.3383L55.6551 28.6177ZM55.1255 29.5984L56.4947 26.5295H57.0003L55.6609 29.5984H55.1263H55.1255Z" fill="#111111"/>
<defs>
<linearGradient id="paint0_linear_1720_604" x1="27.2793" y1="4.64046" x2="26.6957" y2="18.6916" gradientUnits="userSpaceOnUse">
<stop stop-color="#3A0480"/>
<stop offset="1" stop-color="#6300E1"/>
</linearGradient>
<linearGradient id="paint1_linear_1720_604" x1="23.9508" y1="2.59352" x2="12.5942" y2="12.912" gradientUnits="userSpaceOnUse">
<stop stop-color="#741FFF"/>
<stop offset="1" stop-color="#9E52FF"/>
</linearGradient>
<linearGradient id="paint2_linear_1720_604" x1="39.3486" y1="9.69457" x2="29.0711" y2="20.5297" gradientUnits="userSpaceOnUse">
<stop stop-color="#741FFF"/>
<stop offset="1" stop-color="#9E52FF"/>
</linearGradient>
</defs>
</svg>
