<svg width="64" height="36" viewBox="0 0 64 36" fill="none" xmlns="http://www.w3.org/2000/svg">
<g clip-path="url(#clip0_1656_46507)">
<path d="M24.7572 14.2401C24.7572 20.0715 20.0407 24.7986 14.2224 24.7986C8.40404 24.7986 3.6875 20.0715 3.6875 14.2401C3.6875 8.40876 8.40404 3.68164 14.2224 3.68164C16.8963 3.68164 19.3384 4.6803 21.1959 6.32639L18.7385 8.56567C17.5006 7.57361 15.9306 6.98116 14.2224 6.98116C10.222 6.98116 6.97964 10.2308 6.97964 14.2401C6.97964 18.2494 10.222 21.4991 14.2224 21.4991C18.2227 21.4991 21.4651 18.2494 21.4651 14.2401C21.4651 13.9322 21.4461 13.6293 21.4087 13.3316L24.1859 10.8013C24.556 11.8791 24.7572 13.0362 24.7572 14.2401Z" fill="#313539"/>
<path d="M31.9994 4.28711V21.2063L28.0488 24.7991V7.91658L31.9994 4.28711Z" fill="url(#paint0_linear_1656_46507)"/>
<path d="M32.0009 3.68164L28.0503 7.28105L24.1868 10.8013L21.4097 13.3316L17.5155 16.8797H12.248L19.9795 9.83562L22.4222 7.61027L26.7335 3.68164H32.0009Z" fill="url(#paint1_linear_1656_46507)"/>
<path d="M43.8511 10.3535V15.1928L33.3163 24.7981H28.0488L43.8511 10.3535Z" fill="url(#paint2_linear_1656_46507)"/>
<path d="M47.6554 6.98116V12.2604H60.3119V15.5599H47.6554V21.4991H60.3119V24.7986H44.3633V3.68164H60.3119V6.98116H47.6554Z" fill="#313539"/>
<path d="M6.85454 31.9106C6.8004 31.9546 6.72871 31.9993 6.63946 32.0455C6.5502 32.091 6.44705 32.132 6.32999 32.1672C6.21367 32.2024 6.09442 32.2325 5.97298 32.2559C5.85154 32.2794 5.73814 32.2919 5.63352 32.2919C5.33284 32.2919 5.06362 32.2464 4.82512 32.1548C4.58662 32.0631 4.38324 31.937 4.21424 31.7764C4.04525 31.6158 3.91502 31.4259 3.82431 31.2074C3.73359 30.9889 3.6875 30.7477 3.6875 30.4837C3.6875 30.1655 3.73871 29.8832 3.84187 29.6383C3.94502 29.3927 4.08329 29.1859 4.25741 29.0187C4.43152 28.8508 4.63271 28.7247 4.86023 28.6404C5.08849 28.5561 5.32918 28.5135 5.58231 28.5135C5.80545 28.5135 6.01249 28.5392 6.20343 28.5898C6.39437 28.6404 6.55898 28.7049 6.69725 28.7826L6.49972 29.3311C6.43534 29.2908 6.3534 29.2541 6.25391 29.2218C6.15441 29.1896 6.05199 29.1625 5.94737 29.1405C5.84276 29.1185 5.74619 29.1075 5.6584 29.1075C5.44916 29.1075 5.25968 29.1368 5.09068 29.1962C4.92169 29.2556 4.7783 29.3428 4.65978 29.4579C4.54126 29.5731 4.45128 29.7131 4.38836 29.8774C4.32544 30.0416 4.29472 30.2271 4.29472 30.4331C4.29472 30.626 4.32837 30.8005 4.39641 30.9567C4.46371 31.1121 4.55589 31.2463 4.67295 31.3577C4.78927 31.4692 4.93047 31.555 5.09581 31.6144C5.26114 31.6738 5.44404 31.7031 5.64303 31.7031C5.75789 31.7031 5.86909 31.6928 5.97737 31.673C6.08564 31.6525 6.17856 31.6202 6.2561 31.5762V30.9618H5.56183V30.3877H6.85381V31.9113L6.85454 31.9106Z" fill="#313539"/>
<path d="M8.62293 32.2371C8.38151 32.2371 8.17301 32.1894 7.99596 32.0934C7.81892 31.9973 7.68431 31.8646 7.59213 31.696C7.49995 31.5273 7.45312 31.3338 7.45312 31.1153C7.45312 30.8967 7.5058 30.7127 7.61188 30.5441C7.71723 30.3754 7.86062 30.2405 8.04059 30.1393C8.22056 30.0381 8.41955 29.9883 8.63757 29.9883C8.92508 29.9883 9.16211 30.0719 9.34867 30.239C9.53522 30.4062 9.66032 30.6423 9.72251 30.9466L8.03254 31.5178L7.9089 31.2047L9.2221 30.7332L9.1131 30.8029C9.07652 30.7002 9.01726 30.6115 8.93459 30.5375C8.85192 30.4627 8.73779 30.426 8.59294 30.426C8.47735 30.426 8.37493 30.4539 8.28567 30.5103C8.19642 30.5668 8.12619 30.6438 8.07497 30.7413C8.02376 30.8388 7.99816 30.9525 7.99816 31.0815C7.99816 31.2238 8.02596 31.3455 8.08229 31.4467C8.13862 31.5479 8.21471 31.6256 8.31055 31.6798C8.40638 31.7348 8.51539 31.762 8.63757 31.762C8.72316 31.762 8.80583 31.7473 8.88557 31.7172C8.96458 31.6872 9.03921 31.6476 9.10871 31.5977L9.36111 32.0098C9.2521 32.0794 9.13212 32.1344 9.0019 32.1762C8.87167 32.2173 8.74511 32.2386 8.62293 32.2386V32.2371Z" fill="#313539"/>
<path d="M10.8183 30.15L10.868 30.6017L10.8534 30.5423C10.9229 30.3964 11.029 30.2798 11.1731 30.1918C11.3165 30.1038 11.4877 30.0605 11.6859 30.0605C11.8842 30.0605 12.0437 30.1192 12.1739 30.2365C12.3041 30.3538 12.3714 30.5041 12.3744 30.686V32.25H11.8191V30.8891C11.8154 30.7835 11.7862 30.6977 11.7298 30.6332C11.6735 30.5687 11.5843 30.5349 11.4621 30.5313C11.3494 30.5313 11.2485 30.565 11.157 30.6332C11.0663 30.7014 10.9968 30.7938 10.9492 30.9111C10.901 31.0284 10.8775 31.1655 10.8775 31.321V32.2492H10.3223V30.1485H10.8175L10.8183 30.15Z" fill="#313539"/>
<path d="M14.1815 32.2371C13.9401 32.2371 13.7316 32.1894 13.5546 32.0934C13.3775 31.9973 13.2429 31.8646 13.1507 31.696C13.0585 31.5273 13.0117 31.3338 13.0117 31.1153C13.0117 30.8967 13.0644 30.7127 13.1705 30.5441C13.2758 30.3754 13.4192 30.2405 13.5992 30.1393C13.7792 30.0381 13.9781 29.9883 14.1962 29.9883C14.4837 29.9883 14.7207 30.0719 14.9073 30.239C15.0938 30.4062 15.2189 30.6423 15.2811 30.9466L13.5911 31.5178L13.4675 31.2047L14.7807 30.7332L14.6717 30.8029C14.6351 30.7002 14.5759 30.6115 14.4932 30.5375C14.4105 30.4627 14.2964 30.426 14.1515 30.426C14.0359 30.426 13.9335 30.4539 13.8443 30.5103C13.755 30.5668 13.6848 30.6438 13.6336 30.7413C13.5824 30.8388 13.5568 30.9525 13.5568 31.0815C13.5568 31.2238 13.5846 31.3455 13.6409 31.4467C13.6972 31.5479 13.7733 31.6256 13.8691 31.6798C13.965 31.7348 14.074 31.762 14.1962 31.762C14.2818 31.762 14.3644 31.7473 14.4442 31.7172C14.5232 31.6872 14.5978 31.6476 14.6673 31.5977L14.9197 32.0098C14.8107 32.0794 14.6907 32.1344 14.5605 32.1762C14.4303 32.2173 14.3037 32.2386 14.1815 32.2386V32.2371Z" fill="#313539"/>
<path d="M16.3718 30.1512L16.4259 30.7473L16.4113 30.663C16.4639 30.5369 16.5437 30.4299 16.649 30.3404C16.7544 30.2509 16.8619 30.1813 16.9709 30.1314C17.0799 30.0816 17.1706 30.0566 17.2438 30.0566L17.2094 30.6132C17.0543 30.6 16.9175 30.6278 16.8005 30.6975C16.6834 30.7671 16.5927 30.8603 16.5276 30.9783C16.4632 31.0956 16.431 31.2188 16.431 31.3486V32.2527H15.8809V30.152H16.3718V30.1512Z" fill="#313539"/>
<path d="M18.6807 32.3062C18.4824 32.3062 18.3032 32.2644 18.143 32.1823C17.9827 32.0994 17.8562 31.9762 17.764 31.812C17.6718 31.6477 17.625 31.4454 17.625 31.2034C17.625 30.9614 17.674 30.7605 17.7713 30.5904C17.8686 30.4203 17.9974 30.2883 18.1576 30.196C18.3178 30.1036 18.4919 30.0566 18.6799 30.0566C18.8811 30.0566 19.0435 30.0962 19.1657 30.1754C19.2879 30.2546 19.3852 30.3492 19.4584 30.4584L19.4284 30.5376L19.4832 30.1505H19.9983V32.2512H19.4386V31.7394L19.4935 31.8736C19.4803 31.8934 19.4547 31.9256 19.4167 31.9704C19.3786 32.0151 19.3245 32.0642 19.2528 32.117C19.1818 32.1698 19.0991 32.2145 19.0048 32.2512C18.9104 32.2879 18.8021 32.3062 18.6799 32.3062H18.6807ZM18.8343 31.8494C18.9331 31.8494 19.0245 31.8318 19.1065 31.7973C19.1891 31.7629 19.2586 31.7115 19.3142 31.6433C19.3706 31.5759 19.4115 31.4952 19.4379 31.4021V30.9453C19.4115 30.8595 19.3676 30.784 19.3069 30.7195C19.2455 30.655 19.173 30.6044 19.0889 30.5677C19.0048 30.531 18.9133 30.5127 18.8138 30.5127C18.6982 30.5127 18.5922 30.5406 18.4971 30.597C18.4012 30.6535 18.3251 30.7312 18.2688 30.8302C18.2125 30.9292 18.1847 31.0436 18.1847 31.1726C18.1847 31.3017 18.2147 31.4124 18.2739 31.515C18.3332 31.6177 18.4122 31.6991 18.5095 31.7585C18.6068 31.8179 18.7151 31.8479 18.8343 31.8479V31.8494Z" fill="#313539"/>
<path d="M21.0157 29.2266H21.571V30.1504H22.116V30.5823H21.571V32.2511H21.0157V30.5823H20.6543V30.1504H21.0157V29.2266Z" fill="#313539"/>
<path d="M23.705 32.2371C23.4635 32.2371 23.255 32.1894 23.078 32.0934C22.901 31.9973 22.7663 31.8646 22.6742 31.696C22.582 31.5273 22.5352 31.3338 22.5352 31.1153C22.5352 30.8967 22.5878 30.7127 22.6939 30.5441C22.7993 30.3754 22.9427 30.2405 23.1226 30.1393C23.3026 30.0381 23.5016 29.9883 23.7196 29.9883C24.0071 29.9883 24.2441 30.0719 24.4307 30.239C24.6173 30.4062 24.7424 30.6423 24.8045 30.9466L23.1146 31.5178L22.9909 31.2047L24.3041 30.7332L24.1951 30.8029C24.1585 30.7002 24.0993 30.6115 24.0166 30.5375C23.934 30.4627 23.8198 30.426 23.675 30.426C23.5594 30.426 23.457 30.4539 23.3677 30.5103C23.2784 30.5668 23.2082 30.6438 23.157 30.7413C23.1058 30.8388 23.0802 30.9525 23.0802 31.0815C23.0802 31.2238 23.108 31.3455 23.1643 31.4467C23.2207 31.5479 23.2967 31.6256 23.3926 31.6798C23.4884 31.7348 23.5974 31.762 23.7196 31.762C23.8052 31.762 23.8879 31.7473 23.9676 31.7172C24.0466 31.6872 24.1212 31.6476 24.1907 31.5977L24.4431 32.0098C24.3341 32.0794 24.2142 32.1344 24.0839 32.1762C23.9537 32.2173 23.8271 32.2386 23.705 32.2386V32.2371Z" fill="#313539"/>
<path d="M30.3211 32.2365L27.5513 29.6885L27.7247 29.7582L27.7349 32.2512H27.1504V28.5117H27.1804L29.9004 31.0597L29.7717 31.0201L29.7614 28.5125H30.3365V32.2372H30.3218L30.3211 32.2365Z" fill="#313539"/>
<path d="M32.2636 32.2371C32.0221 32.2371 31.8136 32.1894 31.6366 32.0934C31.4595 31.9973 31.3249 31.8646 31.2328 31.696C31.1406 31.5273 31.0938 31.3338 31.0938 31.1153C31.0938 30.8967 31.1464 30.7127 31.2525 30.5441C31.3579 30.3754 31.5012 30.2405 31.6812 30.1393C31.8612 30.0381 32.0602 29.9883 32.2782 29.9883C32.5657 29.9883 32.8027 30.0719 32.9893 30.239C33.1758 30.4062 33.3009 30.6423 33.3631 30.9466L31.6739 31.5178L31.5503 31.2047L32.8635 30.7332L32.7545 30.8029C32.7179 30.7002 32.6586 30.6115 32.5759 30.5375C32.4933 30.4627 32.3791 30.426 32.2343 30.426C32.1187 30.426 32.0163 30.4539 31.927 30.5103C31.8378 30.5668 31.7675 30.6438 31.7163 30.7413C31.6651 30.8388 31.6395 30.9525 31.6395 31.0815C31.6395 31.2238 31.6673 31.3455 31.7236 31.4467C31.78 31.5479 31.8561 31.6256 31.9519 31.6798C32.0477 31.7348 32.1567 31.762 32.2789 31.762C32.3645 31.762 32.4472 31.7473 32.5269 31.7172C32.6059 31.6872 32.6806 31.6476 32.7501 31.5977L33.0025 32.0098C32.8935 32.0794 32.7735 32.1344 32.6433 32.1762C32.513 32.2173 32.3865 32.2386 32.2643 32.2386L32.2636 32.2371Z" fill="#313539"/>
<path d="M35.9445 32.2515H35.2231L33.5039 30.002H34.2362L35.9452 32.2515H35.9445ZM34.6818 31.4589L34.1301 32.2515H33.5361L34.406 31.06L34.6818 31.4589ZM34.7505 30.7887L35.2444 30.002H35.8384L34.9627 31.2198L34.7505 30.7887Z" fill="#313539"/>
<path d="M36.573 29.2266H37.1283V30.1504H37.6733V30.5823H37.1283V32.2511H36.573V30.5823H36.1523V30.1504H36.573V29.2266Z" fill="#313539"/>
<path d="M39.8691 28.5117H42.4304V29.0873H40.4895V30.0838H42.4304V30.6593H40.4895V31.6763H42.5043V32.2519H39.8691V28.5125V28.5117Z" fill="#313539"/>
<path d="M44.9514 32.0617C44.8556 32.1343 44.7407 32.193 44.6069 32.2377C44.473 32.2824 44.3384 32.3044 44.203 32.3044C43.9718 32.3044 43.7677 32.259 43.5914 32.1681C43.4144 32.0771 43.2783 31.9495 43.1825 31.7853C43.0866 31.6218 43.0391 31.4253 43.0391 31.1965C43.0391 30.9678 43.091 30.772 43.1949 30.6077C43.2988 30.4442 43.4356 30.3174 43.606 30.2279C43.7758 30.1385 43.9557 30.0938 44.1438 30.0938C44.3223 30.0938 44.4788 30.1179 44.6142 30.1656C44.7495 30.2133 44.8651 30.2793 44.9609 30.3621L44.6932 30.7243C44.6368 30.6811 44.5666 30.6407 44.4825 30.6026C44.3984 30.5645 44.3018 30.5454 44.1928 30.5454C44.0838 30.5454 43.9835 30.5747 43.8928 30.6327C43.8021 30.6906 43.7289 30.7676 43.6748 30.8636C43.6199 30.9597 43.5929 31.0704 43.5929 31.1965C43.5929 31.3153 43.6207 31.4253 43.677 31.5243C43.7333 31.6233 43.8102 31.7025 43.9075 31.7604C44.0048 31.8183 44.1182 31.8476 44.2469 31.8476C44.3325 31.8476 44.4101 31.8352 44.4796 31.8102C44.5491 31.7853 44.6112 31.7516 44.6676 31.7083L44.95 32.061L44.9514 32.0617Z" fill="#313539"/>
<path d="M45.3926 31.1792C45.3926 30.9673 45.4431 30.7767 45.544 30.608C45.645 30.4394 45.7847 30.3052 45.9625 30.2055C46.1403 30.1058 46.3458 30.0566 46.577 30.0566C46.8082 30.0566 47.0108 30.1065 47.1842 30.2055C47.3576 30.3045 47.4922 30.4387 47.5881 30.608C47.6839 30.7774 47.7315 30.9658 47.7315 31.1741C47.7315 31.3823 47.6839 31.5818 47.5881 31.7526C47.4922 31.9234 47.3576 32.0584 47.1842 32.1573C47.0108 32.2563 46.8038 32.3062 46.5624 32.3062C46.3378 32.3062 46.1373 32.2607 45.9603 32.1698C45.7832 32.0789 45.645 31.9491 45.544 31.7797C45.4431 31.6111 45.3926 31.4109 45.3926 31.1792ZM45.9522 31.1843C45.9522 31.3105 45.9786 31.4226 46.0313 31.5224C46.0839 31.6213 46.1556 31.7013 46.2471 31.7607C46.3378 31.8201 46.4409 31.8501 46.5565 31.8501C46.6787 31.8501 46.7855 31.8201 46.8762 31.7607C46.967 31.7013 47.0387 31.6213 47.0921 31.5224C47.1447 31.4234 47.1711 31.3105 47.1711 31.1843C47.1711 31.0582 47.1447 30.946 47.0921 30.8463C47.0394 30.7473 46.9677 30.6674 46.8762 30.608C46.7855 30.5486 46.6802 30.5186 46.5617 30.5186C46.4431 30.5186 46.3422 30.5486 46.2493 30.608C46.1564 30.6674 46.0839 30.7481 46.0313 30.8493C45.9786 30.9504 45.9522 31.0619 45.9522 31.1843Z" fill="#313539"/>
<path d="M48.8659 30.15L48.9156 30.6017L48.901 30.5423C48.9705 30.3964 49.0773 30.2798 49.2207 30.1918C49.3641 30.1038 49.5353 30.0605 49.7336 30.0605C49.9318 30.0605 50.0913 30.1192 50.2215 30.2365C50.3517 30.3538 50.419 30.5041 50.422 30.686V32.25H49.8667V30.8891C49.863 30.7835 49.8338 30.6977 49.7774 30.6332C49.7211 30.5687 49.6319 30.5349 49.5097 30.5313C49.397 30.5313 49.2961 30.565 49.2046 30.6332C49.1139 30.7014 49.0444 30.7938 48.9961 30.9111C48.9478 31.0284 48.9244 31.1655 48.9244 31.321V32.2492H48.3691V30.1485H48.8644L48.8659 30.15Z" fill="#313539"/>
<path d="M51.0625 31.1792C51.0625 30.9673 51.113 30.7767 51.2139 30.608C51.3149 30.4394 51.4546 30.3052 51.6324 30.2055C51.8102 30.1058 52.0158 30.0566 52.2469 30.0566C52.4781 30.0566 52.6808 30.1065 52.8542 30.2055C53.0275 30.3045 53.1622 30.4387 53.258 30.608C53.3538 30.7767 53.4014 30.9658 53.4014 31.1741C53.4014 31.3823 53.3538 31.5818 53.258 31.7526C53.1622 31.9234 53.0275 32.0584 52.8542 32.1573C52.6808 32.2563 52.4737 32.3062 52.2323 32.3062C52.0077 32.3062 51.8073 32.2607 51.6302 32.1698C51.4532 32.0789 51.3149 31.9491 51.2139 31.7797C51.113 31.6111 51.0625 31.4109 51.0625 31.1792ZM51.6222 31.1843C51.6222 31.3105 51.6485 31.4226 51.7012 31.5224C51.7538 31.6213 51.8255 31.7013 51.917 31.7607C52.0077 31.8201 52.1109 31.8501 52.2265 31.8501C52.3486 31.8501 52.4554 31.8201 52.5462 31.7607C52.6369 31.7013 52.7086 31.6213 52.762 31.5224C52.8147 31.4234 52.841 31.3105 52.841 31.1843C52.841 31.0582 52.8147 30.946 52.762 30.8463C52.7093 30.7473 52.6376 30.6674 52.5462 30.608C52.4554 30.5486 52.3501 30.5186 52.2316 30.5186C52.1131 30.5186 52.0121 30.5486 51.9192 30.608C51.8263 30.6674 51.7538 30.7481 51.7012 30.8493C51.6485 30.9504 51.6222 31.0619 51.6222 31.1843Z" fill="#313539"/>
<path d="M54.5339 30.1512L54.5836 30.578L54.5639 30.5435C54.6465 30.391 54.7555 30.2722 54.8909 30.1857C55.0262 30.0999 55.1835 30.0566 55.3613 30.0566C55.4798 30.0566 55.5844 30.0742 55.6737 30.1087C55.7629 30.1432 55.8383 30.1945 55.899 30.2627C55.9597 30.3309 55.9985 30.4145 56.0153 30.5134L55.9956 30.5281C56.0782 30.3793 56.1872 30.2634 56.3226 30.1806C56.4579 30.0977 56.6035 30.0566 56.7586 30.0566C56.9598 30.0566 57.1222 30.1146 57.2444 30.2304C57.3666 30.3463 57.4295 30.4988 57.4324 30.6872V32.2512H56.8823V30.9057C56.8786 30.8031 56.8574 30.718 56.8179 30.6498C56.7784 30.5824 56.7037 30.545 56.5947 30.5384C56.4762 30.5384 56.3738 30.5758 56.2875 30.6498C56.2011 30.7246 56.1346 30.8207 56.087 30.938C56.0395 31.0553 56.0131 31.1792 56.0102 31.3083V32.2519H55.4549V30.9065C55.4513 30.8038 55.4286 30.7187 55.3854 30.6506C55.3423 30.5831 55.2662 30.5457 55.1572 30.5391C55.0416 30.5391 54.9406 30.5765 54.855 30.6506C54.7687 30.7253 54.7036 30.8214 54.659 30.9387C54.6143 31.056 54.5924 31.1814 54.5924 31.3134V32.2519H54.0371V30.1512H54.5324H54.5339Z" fill="#313539"/>
<path d="M58.9542 32.2658L57.9336 30.1504H58.5576L59.3799 31.9827L58.9542 32.2658ZM58.4194 33.2593L59.8021 30.1504H60.3127L58.96 33.2593H58.4201H58.4194Z" fill="#313539"/>
</g>
<defs>
<linearGradient id="paint0_linear_1656_46507" x1="30.297" y1="7.97598" x2="29.704" y2="22.21" gradientUnits="userSpaceOnUse">
<stop stop-color="#313539"/>
<stop offset="1" stop-color="#8F959C"/>
</linearGradient>
<linearGradient id="paint1_linear_1656_46507" x1="26.9369" y1="5.90185" x2="15.4358" y2="16.3196" gradientUnits="userSpaceOnUse">
<stop stop-color="#8F959C"/>
<stop offset="1" stop-color="#BEC5CB"/>
</linearGradient>
<linearGradient id="paint2_linear_1656_46507" x1="42.486" y1="13.0951" x2="32.073" y2="24.0394" gradientUnits="userSpaceOnUse">
<stop stop-color="#8F959C"/>
<stop offset="1" stop-color="#BEC5CB"/>
</linearGradient>
<clipPath id="clip0_1656_46507">
<rect width="64" height="36" fill="white"/>
</clipPath>
</defs>
</svg>
